<svg width="100%" viewBox="0 0 680 920" xmlns="http://www.w3.org/2000/svg" font-family="sans-serif">
  <defs>
    <marker id="arrow" viewBox="0 0 10 10" refX="8" refY="5" markerWidth="6" markerHeight="6" orient="auto-start-reverse">
      <path d="M2 1L8 5L2 9" fill="none" stroke="#888" stroke-width="1.5" stroke-linecap="round" stroke-linejoin="round"/>
    </marker>
  </defs>

  <!-- STEP 1: USER INPUT -->
  <rect x="40" y="30" width="600" height="64" rx="10" fill="#F1EFE8" stroke="#5F5E5A" stroke-width="0.5"/>
  <text font-size="14" font-weight="500" fill="#2C2C2A" x="340" y="55" text-anchor="middle" dominant-baseline="central">User input</text>
  <text font-size="12" fill="#5F5E5A" x="340" y="74" text-anchor="middle" dominant-baseline="central">Upload legal notice — PDF · DOCX · image · pasted text</text>

  <line x1="340" y1="94" x2="340" y2="118" stroke="#888" stroke-width="1.2" marker-end="url(#arrow)"/>

  <!-- STEP 2: FRONTEND -->
  <rect x="40" y="120" width="600" height="88" rx="10" fill="#EEEDFE" stroke="#534AB7" stroke-width="0.5"/>
  <text font-size="14" font-weight="500" fill="#3C3489" x="340" y="140" text-anchor="middle" dominant-baseline="central">Frontend layer — Web App (Next.js)</text>
  <rect x="48" y="154" width="185" height="44" rx="8" fill="#CECBF6" stroke="#534AB7" stroke-width="0.5"/>
  <text font-size="14" font-weight="500" fill="#3C3489" x="140" y="172" text-anchor="middle" dominant-baseline="central">Upload interface</text>
  <text font-size="12" fill="#534AB7" x="140" y="188" text-anchor="middle" dominant-baseline="central">File submission</text>
  <rect x="247" y="154" width="185" height="44" rx="8" fill="#CECBF6" stroke="#534AB7" stroke-width="0.5"/>
  <text font-size="14" font-weight="500" fill="#3C3489" x="340" y="172" text-anchor="middle" dominant-baseline="central">Dashboard UI</text>
  <text font-size="12" fill="#534AB7" x="340" y="188" text-anchor="middle" dominant-baseline="central">Cards · results view</text>
  <rect x="446" y="154" width="186" height="44" rx="8" fill="#CECBF6" stroke="#534AB7" stroke-width="0.5"/>
  <text font-size="14" font-weight="500" fill="#3C3489" x="539" y="172" text-anchor="middle" dominant-baseline="central">Output cards</text>
  <text font-size="12" fill="#534AB7" x="539" y="188" text-anchor="middle" dominant-baseline="central">Summary · score · draft</text>

  <line x1="340" y1="208" x2="340" y2="232" stroke="#888" stroke-width="1.2" marker-end="url(#arrow)"/>

  <!-- STEP 3: BACKEND API -->
  <rect x="40" y="234" width="600" height="64" rx="10" fill="#E1F5EE" stroke="#0F6E56" stroke-width="0.5"/>
  <text font-size="14" font-weight="500" fill="#085041" x="340" y="256" text-anchor="middle" dominant-baseline="central">Backend API — FastAPI</text>
  <text font-size="12" fill="#0F6E56" x="340" y="275" text-anchor="middle" dominant-baseline="central">Handles routing · request processing · module communication</text>

  <line x1="340" y1="298" x2="340" y2="322" stroke="#888" stroke-width="1.2" marker-end="url(#arrow)"/>

  <!-- STEP 4: PROCESSING PIPELINE -->
  <rect x="40" y="324" width="600" height="154" rx="10" fill="#E6F1FB" stroke="#185FA5" stroke-width="0.5"/>
  <text font-size="14" font-weight="500" fill="#0C447C" x="340" y="344" text-anchor="middle" dominant-baseline="central">Processing pipeline (core engine)</text>

  <rect x="48" y="358" width="280" height="44" rx="8" fill="#B5D4F4" stroke="#185FA5" stroke-width="0.5"/>
  <text font-size="14" font-weight="500" fill="#0C447C" x="188" y="376" text-anchor="middle" dominant-baseline="central">OCR module</text>
  <text font-size="12" fill="#185FA5" x="188" y="392" text-anchor="middle" dominant-baseline="central">Tesseract / PyMuPDF</text>
  <line x1="328" y1="380" x2="350" y2="380" stroke="#888" stroke-width="1.2" marker-end="url(#arrow)"/>
  <rect x="352" y="358" width="280" height="44" rx="8" fill="#B5D4F4" stroke="#185FA5" stroke-width="0.5"/>
  <text font-size="14" font-weight="500" fill="#0C447C" x="492" y="376" text-anchor="middle" dominant-baseline="central">Text cleaning</text>
  <text font-size="12" fill="#185FA5" x="492" y="392" text-anchor="middle" dominant-baseline="central">Normalise · structure</text>

  <rect x="48" y="416" width="108" height="52" rx="8" fill="#B5D4F4" stroke="#185FA5" stroke-width="0.5"/>
  <text font-size="14" font-weight="500" fill="#0C447C" x="102" y="436" text-anchor="middle" dominant-baseline="central">Doc classify</text>
  <text font-size="12" fill="#185FA5" x="102" y="454" text-anchor="middle" dominant-baseline="central">FIR/notice/summons</text>
  <rect x="166" y="416" width="108" height="52" rx="8" fill="#B5D4F4" stroke="#185FA5" stroke-width="0.5"/>
  <text font-size="14" font-weight="500" fill="#0C447C" x="220" y="436" text-anchor="middle" dominant-baseline="central">Info extract</text>
  <text font-size="12" fill="#185FA5" x="220" y="454" text-anchor="middle" dominant-baseline="central">NER + Regex</text>
  <rect x="284" y="416" width="112" height="52" rx="8" fill="#B5D4F4" stroke="#185FA5" stroke-width="0.5"/>
  <text font-size="14" font-weight="500" fill="#0C447C" x="340" y="436" text-anchor="middle" dominant-baseline="central">Fraud engine</text>
  <text font-size="12" fill="#185FA5" x="340" y="454" text-anchor="middle" dominant-baseline="central">Pattern match</text>
  <rect x="406" y="416" width="108" height="52" rx="8" fill="#B5D4F4" stroke="#185FA5" stroke-width="0.5"/>
  <text font-size="14" font-weight="500" fill="#0C447C" x="460" y="436" text-anchor="middle" dominant-baseline="central">Deadlines</text>
  <text font-size="12" fill="#185FA5" x="460" y="454" text-anchor="middle" dominant-baseline="central">Date detection</text>
  <rect x="524" y="416" width="108" height="52" rx="8" fill="#B5D4F4" stroke="#185FA5" stroke-width="0.5"/>
  <text font-size="14" font-weight="500" fill="#0C447C" x="578" y="436" text-anchor="middle" dominant-baseline="central">Legal context</text>
  <text font-size="12" fill="#185FA5" x="578" y="454" text-anchor="middle" dominant-baseline="central">Clause mapping</text>

  <line x1="340" y1="478" x2="340" y2="502" stroke="#888" stroke-width="1.2" marker-end="url(#arrow)"/>

  <!-- STEP 5: HYBRID INTELLIGENCE -->
  <rect x="40" y="504" width="600" height="100" rx="10" fill="#FAEEDA" stroke="#854F0B" stroke-width="0.5"/>
  <text font-size="14" font-weight="500" fill="#412402" x="340" y="524" text-anchor="middle" dominant-baseline="central">Hybrid intelligence layer</text>
  <rect x="48" y="538" width="278" height="56" rx="8" fill="#FAC775" stroke="#854F0B" stroke-width="0.5"/>
  <text font-size="14" font-weight="500" fill="#412402" x="187" y="558" text-anchor="middle" dominant-baseline="central">Deterministic engine</text>
  <text font-size="12" fill="#854F0B" x="187" y="576" text-anchor="middle" dominant-baseline="central">Rule-based + NLP fallback</text>
  <line x1="326" y1="566" x2="352" y2="566" stroke="#888" stroke-width="1.2" marker-end="url(#arrow)"/>
  <rect x="354" y="538" width="278" height="56" rx="8" fill="#FAC775" stroke="#854F0B" stroke-width="0.5"/>
  <text font-size="14" font-weight="500" fill="#412402" x="493" y="558" text-anchor="middle" dominant-baseline="central">LLM layer</text>
  <text font-size="12" fill="#854F0B" x="493" y="576" text-anchor="middle" dominant-baseline="central">Ollama + Qwen 2.5 (local)</text>

  <line x1="340" y1="604" x2="340" y2="628" stroke="#888" stroke-width="1.2" marker-end="url(#arrow)"/>

  <!-- STEP 6: DATA STORAGE -->
  <rect x="40" y="630" width="600" height="64" rx="10" fill="#F1EFE8" stroke="#5F5E5A" stroke-width="0.5"/>
  <text font-size="14" font-weight="500" fill="#2C2C2A" x="340" y="652" text-anchor="middle" dominant-baseline="central">Data &amp; storage layer — SQLite</text>
  <text font-size="12" fill="#5F5E5A" x="340" y="671" text-anchor="middle" dominant-baseline="central">Extracted fields · analysis results · history · templates</text>

  <line x1="340" y1="694" x2="340" y2="718" stroke="#888" stroke-width="1.2" marker-end="url(#arrow)"/>

  <!-- STEP 7: OUTPUT -->
  <rect x="40" y="720" width="600" height="84" rx="10" fill="#E1F5EE" stroke="#0F6E56" stroke-width="0.5"/>
  <text font-size="14" font-weight="500" fill="#085041" x="340" y="740" text-anchor="middle" dominant-baseline="central">Structured JSON output</text>
  <rect x="48"  y="754" width="84"  height="40" rx="8" fill="#9FE1CB" stroke="#0F6E56" stroke-width="0.5"/>
  <text font-size="12" fill="#085041" x="90"  y="774" text-anchor="middle" dominant-baseline="central">Summary</text>
  <rect x="144" y="754" width="84"  height="40" rx="8" fill="#9FE1CB" stroke="#0F6E56" stroke-width="0.5"/>
  <text font-size="12" fill="#085041" x="186" y="774" text-anchor="middle" dominant-baseline="central">Explanation</text>
  <rect x="240" y="754" width="84"  height="40" rx="8" fill="#9FE1CB" stroke="#0F6E56" stroke-width="0.5"/>
  <text font-size="12" fill="#085041" x="282" y="774" text-anchor="middle" dominant-baseline="central">Risk score</text>
  <rect x="336" y="754" width="84"  height="40" rx="8" fill="#9FE1CB" stroke="#0F6E56" stroke-width="0.5"/>
  <text font-size="12" fill="#085041" x="378" y="774" text-anchor="middle" dominant-baseline="central">Laws cited</text>
  <rect x="432" y="754" width="84"  height="40" rx="8" fill="#9FE1CB" stroke="#0F6E56" stroke-width="0.5"/>
  <text font-size="12" fill="#085041" x="474" y="774" text-anchor="middle" dominant-baseline="central">Deadlines</text>
  <rect x="528" y="754" width="104" height="40" rx="8" fill="#9FE1CB" stroke="#0F6E56" stroke-width="0.5"/>
  <text font-size="12" fill="#085041" x="580" y="774" text-anchor="middle" dominant-baseline="central">Reply draft</text>

  <line x1="340" y1="804" x2="340" y2="828" stroke="#888" stroke-width="1.2" marker-end="url(#arrow)"/>

  <!-- STEP 8: ADD-ONS -->
  <rect x="40" y="830" width="600" height="88" rx="10" fill="#FAECE7" stroke="#993C1D" stroke-width="0.5"/>
  <text font-size="14" font-weight="500" fill="#4A1B0C" x="340" y="850" text-anchor="middle" dominant-baseline="central">Optional add-on layer</text>
  <rect x="88" y="864" width="220" height="44" rx="8" fill="#F5C4B3" stroke="#993C1D" stroke-width="0.5"/>
  <text font-size="14" font-weight="500" fill="#4A1B0C" x="198" y="882" text-anchor="middle" dominant-baseline="central">Translation service</text>
  <text font-size="12" fill="#993C1D" x="198" y="898" text-anchor="middle" dominant-baseline="central">Hindi · Marathi · 22 langs</text>
  <rect x="372" y="864" width="220" height="44" rx="8" fill="#F5C4B3" stroke="#993C1D" stroke-width="0.5"/>
  <text font-size="14" font-weight="500" fill="#4A1B0C" x="482" y="882" text-anchor="middle" dominant-baseline="central">Case assistant chat</text>
  <text font-size="12" fill="#993C1D" x="482" y="898" text-anchor="middle" dominant-baseline="central">Interactive Q&amp;A on document</text>

</svg>
